<mxfile host="65bd71144e">
    <diagram id="C5RBs43oDa-KdzZeNtuy" name="Page-1">
        <mxGraphModel dx="2231" dy="1812" grid="1" gridSize="10" guides="1" tooltips="1" connect="1" arrows="1" fold="1" page="1" pageScale="1" pageWidth="827" pageHeight="1169" math="0" shadow="0">
            <root>
                <mxCell id="WIyWlLk6GJQsqaUBKTNV-0"/>
                <mxCell id="WIyWlLk6GJQsqaUBKTNV-1" parent="WIyWlLk6GJQsqaUBKTNV-0"/>
                <mxCell id="vieevAvq_79WX8gQopKg-43" value="&lt;p style=&quot;font-size: 20px; line-height: 110%;&quot;&gt;Сумма&amp;nbsp; &amp;nbsp;&lt;span style=&quot;background-color: initial;&quot;&gt;разрядов&lt;/span&gt;&lt;/p&gt;" style="ellipse;whiteSpace=wrap;html=1;" parent="WIyWlLk6GJQsqaUBKTNV-1" vertex="1">
                    <mxGeometry x="200.01" y="-260" width="120" height="80" as="geometry"/>
                </mxCell>
                <mxCell id="vieevAvq_79WX8gQopKg-44" value="&lt;span style=&quot;font-size: 25px;&quot;&gt;Ввод&lt;br&gt;n, r, s&lt;/span&gt;" style="shape=parallelogram;perimeter=parallelogramPerimeter;whiteSpace=wrap;html=1;fixedSize=1;" parent="WIyWlLk6GJQsqaUBKTNV-1" vertex="1">
                    <mxGeometry x="200.01" y="-130" width="120" height="60" as="geometry"/>
                </mxCell>
                <mxCell id="vieevAvq_79WX8gQopKg-46" value="" style="endArrow=classic;html=1;rounded=0;exitX=0.5;exitY=1;exitDx=0;exitDy=0;entryX=0.5;entryY=0;entryDx=0;entryDy=0;" parent="WIyWlLk6GJQsqaUBKTNV-1" source="vieevAvq_79WX8gQopKg-43" target="vieevAvq_79WX8gQopKg-44" edge="1">
                    <mxGeometry width="50" height="50" relative="1" as="geometry">
                        <mxPoint x="180" y="350" as="sourcePoint"/>
                        <mxPoint x="230" y="300" as="targetPoint"/>
                    </mxGeometry>
                </mxCell>
                <mxCell id="vieevAvq_79WX8gQopKg-48" value="&lt;span style=&quot;font-size: 20px;&quot;&gt;n &amp;lt; 0&lt;/span&gt;" style="rhombus;whiteSpace=wrap;html=1;" parent="WIyWlLk6GJQsqaUBKTNV-1" vertex="1">
                    <mxGeometry x="220" y="320" width="80" height="80" as="geometry"/>
                </mxCell>
                <mxCell id="vieevAvq_79WX8gQopKg-50" value="" style="endArrow=classic;html=1;rounded=0;exitX=0.5;exitY=1;exitDx=0;exitDy=0;" parent="WIyWlLk6GJQsqaUBKTNV-1" source="vieevAvq_79WX8gQopKg-44" edge="1">
                    <mxGeometry width="50" height="50" relative="1" as="geometry">
                        <mxPoint x="250" y="-50" as="sourcePoint"/>
                        <mxPoint x="260" y="-20" as="targetPoint"/>
                    </mxGeometry>
                </mxCell>
                <mxCell id="vieevAvq_79WX8gQopKg-51" value="&#10;&lt;div style=&quot;color: rgb(204, 204, 204); background-color: rgb(31, 31, 31); font-family: Consolas, &amp;quot;Courier New&amp;quot;, monospace; font-weight: normal; font-size: 14px; line-height: 19px;&quot;&gt;&lt;br&gt;&lt;/div&gt;&#10;&#10;" style="endArrow=classic;html=1;rounded=0;exitX=0;exitY=0.5;exitDx=0;exitDy=0;" parent="WIyWlLk6GJQsqaUBKTNV-1" source="vieevAvq_79WX8gQopKg-48" edge="1">
                    <mxGeometry width="50" height="50" relative="1" as="geometry">
                        <mxPoint x="140" y="400" as="sourcePoint"/>
                        <mxPoint x="150" y="420" as="targetPoint"/>
                        <Array as="points">
                            <mxPoint x="150" y="360"/>
                        </Array>
                    </mxGeometry>
                </mxCell>
                <mxCell id="vieevAvq_79WX8gQopKg-60" value="&lt;font style=&quot;font-size: 20px;&quot;&gt;Да&lt;/font&gt;" style="edgeLabel;html=1;align=center;verticalAlign=middle;resizable=0;points=[];" parent="vieevAvq_79WX8gQopKg-51" vertex="1" connectable="0">
                    <mxGeometry x="-0.4462" y="1" relative="1" as="geometry">
                        <mxPoint as="offset"/>
                    </mxGeometry>
                </mxCell>
                <mxCell id="vieevAvq_79WX8gQopKg-52" value="" style="endArrow=classic;html=1;rounded=0;exitX=1;exitY=0.5;exitDx=0;exitDy=0;" parent="WIyWlLk6GJQsqaUBKTNV-1" source="vieevAvq_79WX8gQopKg-48" edge="1">
                    <mxGeometry width="50" height="50" relative="1" as="geometry">
                        <mxPoint x="230" y="370" as="sourcePoint"/>
                        <mxPoint x="370" y="440" as="targetPoint"/>
                        <Array as="points">
                            <mxPoint x="370" y="360"/>
                        </Array>
                    </mxGeometry>
                </mxCell>
                <mxCell id="vieevAvq_79WX8gQopKg-61" value="&lt;font style=&quot;font-size: 20px;&quot;&gt;Нет&lt;/font&gt;" style="edgeLabel;html=1;align=center;verticalAlign=middle;resizable=0;points=[];" parent="vieevAvq_79WX8gQopKg-52" vertex="1" connectable="0">
                    <mxGeometry x="-0.4769" y="1" relative="1" as="geometry">
                        <mxPoint as="offset"/>
                    </mxGeometry>
                </mxCell>
                <mxCell id="vieevAvq_79WX8gQopKg-53" value="n = - n" style="rounded=0;whiteSpace=wrap;html=1;fontSize=20;" parent="WIyWlLk6GJQsqaUBKTNV-1" vertex="1">
                    <mxGeometry x="110" y="420" width="110" height="50" as="geometry"/>
                </mxCell>
                <mxCell id="vieevAvq_79WX8gQopKg-63" value="" style="endArrow=classic;html=1;rounded=0;entryX=0.5;entryY=0;entryDx=0;entryDy=0;" parent="WIyWlLk6GJQsqaUBKTNV-1" target="vieevAvq_79WX8gQopKg-66" edge="1">
                    <mxGeometry width="50" height="50" relative="1" as="geometry">
                        <mxPoint x="150" y="471" as="sourcePoint"/>
                        <mxPoint x="260" y="561" as="targetPoint"/>
                        <Array as="points">
                            <mxPoint x="150" y="520"/>
                            <mxPoint x="260" y="520"/>
                        </Array>
                    </mxGeometry>
                </mxCell>
                <mxCell id="vieevAvq_79WX8gQopKg-64" value="" style="endArrow=classic;html=1;rounded=0;entryX=0.5;entryY=0;entryDx=0;entryDy=0;" parent="WIyWlLk6GJQsqaUBKTNV-1" target="vieevAvq_79WX8gQopKg-66" edge="1">
                    <mxGeometry width="50" height="50" relative="1" as="geometry">
                        <mxPoint x="370" y="430" as="sourcePoint"/>
                        <mxPoint x="260" y="570" as="targetPoint"/>
                        <Array as="points">
                            <mxPoint x="370" y="520"/>
                            <mxPoint x="260" y="520"/>
                        </Array>
                    </mxGeometry>
                </mxCell>
                <mxCell id="vieevAvq_79WX8gQopKg-66" value="dc = 0, t = n" style="rounded=0;whiteSpace=wrap;html=1;fontSize=20;" parent="WIyWlLk6GJQsqaUBKTNV-1" vertex="1">
                    <mxGeometry x="174.38" y="560" width="171.25" height="51" as="geometry"/>
                </mxCell>
                <mxCell id="vieevAvq_79WX8gQopKg-69" value="" style="endArrow=classic;html=1;rounded=0;entryX=0.5;entryY=0;entryDx=0;entryDy=0;exitX=0.5;exitY=1;exitDx=0;exitDy=0;" parent="WIyWlLk6GJQsqaUBKTNV-1" source="vieevAvq_79WX8gQopKg-66" edge="1">
                    <mxGeometry width="50" height="50" relative="1" as="geometry">
                        <mxPoint x="260.01" y="620" as="sourcePoint"/>
                        <mxPoint x="259.65" y="659" as="targetPoint"/>
                    </mxGeometry>
                </mxCell>
                <mxCell id="vieevAvq_79WX8gQopKg-70" value="&lt;font style=&quot;font-size: 21px;&quot;&gt;t = 0&lt;/font&gt;" style="rhombus;whiteSpace=wrap;html=1;" parent="WIyWlLk6GJQsqaUBKTNV-1" vertex="1">
                    <mxGeometry x="220" y="660" width="80" height="80" as="geometry"/>
                </mxCell>
                <mxCell id="vieevAvq_79WX8gQopKg-72" value="" style="endArrow=classic;html=1;rounded=0;exitX=1;exitY=0.5;exitDx=0;exitDy=0;entryX=0.5;entryY=0;entryDx=0;entryDy=0;" parent="WIyWlLk6GJQsqaUBKTNV-1" target="vieevAvq_79WX8gQopKg-76" edge="1">
                    <mxGeometry width="50" height="50" relative="1" as="geometry">
                        <mxPoint x="300" y="700" as="sourcePoint"/>
                        <mxPoint x="370" y="760" as="targetPoint"/>
                        <Array as="points">
                            <mxPoint x="375" y="700"/>
                        </Array>
                    </mxGeometry>
                </mxCell>
                <mxCell id="vieevAvq_79WX8gQopKg-73" value="&lt;font style=&quot;font-size: 20px;&quot;&gt;Нет&lt;/font&gt;" style="edgeLabel;html=1;align=center;verticalAlign=middle;resizable=0;points=[];" parent="vieevAvq_79WX8gQopKg-72" vertex="1" connectable="0">
                    <mxGeometry x="-0.4769" y="1" relative="1" as="geometry">
                        <mxPoint as="offset"/>
                    </mxGeometry>
                </mxCell>
                <mxCell id="vieevAvq_79WX8gQopKg-74" value="&#10;&lt;div style=&quot;color: rgb(204, 204, 204); background-color: rgb(31, 31, 31); font-family: Consolas, &amp;quot;Courier New&amp;quot;, monospace; font-weight: normal; font-size: 14px; line-height: 19px;&quot;&gt;&lt;br&gt;&lt;/div&gt;&#10;&#10;" style="endArrow=classic;html=1;rounded=0;exitX=0;exitY=0.5;exitDx=0;exitDy=0;" parent="WIyWlLk6GJQsqaUBKTNV-1" edge="1">
                    <mxGeometry width="50" height="50" relative="1" as="geometry">
                        <mxPoint x="220" y="700" as="sourcePoint"/>
                        <mxPoint x="150" y="760" as="targetPoint"/>
                        <Array as="points">
                            <mxPoint x="150" y="700"/>
                        </Array>
                    </mxGeometry>
                </mxCell>
                <mxCell id="vieevAvq_79WX8gQopKg-75" value="&lt;font style=&quot;font-size: 20px;&quot;&gt;Да&lt;/font&gt;" style="edgeLabel;html=1;align=center;verticalAlign=middle;resizable=0;points=[];" parent="vieevAvq_79WX8gQopKg-74" vertex="1" connectable="0">
                    <mxGeometry x="-0.4462" y="1" relative="1" as="geometry">
                        <mxPoint as="offset"/>
                    </mxGeometry>
                </mxCell>
                <mxCell id="vieevAvq_79WX8gQopKg-76" value="t = t / 10" style="rounded=0;whiteSpace=wrap;html=1;fontSize=20;" parent="WIyWlLk6GJQsqaUBKTNV-1" vertex="1">
                    <mxGeometry x="320" y="771" width="110" height="50" as="geometry"/>
                </mxCell>
                <mxCell id="vieevAvq_79WX8gQopKg-77" value="" style="endArrow=classic;html=1;rounded=0;entryX=0.5;entryY=0;entryDx=0;entryDy=0;exitX=0.5;exitY=1;exitDx=0;exitDy=0;" parent="WIyWlLk6GJQsqaUBKTNV-1" source="vieevAvq_79WX8gQopKg-76" target="vieevAvq_79WX8gQopKg-81" edge="1">
                    <mxGeometry width="50" height="50" relative="1" as="geometry">
                        <mxPoint x="375" y="830" as="sourcePoint"/>
                        <mxPoint x="374.64" y="849" as="targetPoint"/>
                    </mxGeometry>
                </mxCell>
                <mxCell id="vieevAvq_79WX8gQopKg-81" value="dc = dc + 1" style="rounded=0;whiteSpace=wrap;html=1;fontSize=20;" parent="WIyWlLk6GJQsqaUBKTNV-1" vertex="1">
                    <mxGeometry x="320" y="945" width="110" height="50" as="geometry"/>
                </mxCell>
                <mxCell id="vieevAvq_79WX8gQopKg-83" value="" style="endArrow=classic;html=1;rounded=0;fontStyle=1;exitX=0.5;exitY=1;exitDx=0;exitDy=0;entryX=0.5;entryY=0;entryDx=0;entryDy=0;" parent="WIyWlLk6GJQsqaUBKTNV-1" source="vieevAvq_79WX8gQopKg-81" target="vieevAvq_79WX8gQopKg-84" edge="1">
                    <mxGeometry width="50" height="50" relative="1" as="geometry">
                        <mxPoint x="375" y="1020" as="sourcePoint"/>
                        <mxPoint x="260" y="1090" as="targetPoint"/>
                        <Array as="points"/>
                    </mxGeometry>
                </mxCell>
                <mxCell id="vieevAvq_79WX8gQopKg-84" value="" style="ellipse;whiteSpace=wrap;html=1;aspect=fixed;" parent="WIyWlLk6GJQsqaUBKTNV-1" vertex="1">
                    <mxGeometry x="350" y="1070" width="50" height="50" as="geometry"/>
                </mxCell>
                <mxCell id="vieevAvq_79WX8gQopKg-86" value="" style="ellipse;whiteSpace=wrap;html=1;aspect=fixed;" parent="WIyWlLk6GJQsqaUBKTNV-1" vertex="1">
                    <mxGeometry x="60" y="609" width="50" height="50" as="geometry"/>
                </mxCell>
                <mxCell id="vieevAvq_79WX8gQopKg-88" value="" style="ellipse;whiteSpace=wrap;html=1;aspect=fixed;" parent="WIyWlLk6GJQsqaUBKTNV-1" vertex="1">
                    <mxGeometry x="124.38" y="1100" width="50" height="50" as="geometry"/>
                </mxCell>
                <mxCell id="vieevAvq_79WX8gQopKg-90" value="" style="ellipse;whiteSpace=wrap;html=1;aspect=fixed;" parent="WIyWlLk6GJQsqaUBKTNV-1" vertex="1">
                    <mxGeometry x="644" y="-220" width="50" height="50" as="geometry"/>
                </mxCell>
                <mxCell id="vieevAvq_79WX8gQopKg-91" value="" style="endArrow=classic;html=1;rounded=0;exitX=0.5;exitY=1;exitDx=0;exitDy=0;entryX=0.5;entryY=0;entryDx=0;entryDy=0;" parent="WIyWlLk6GJQsqaUBKTNV-1" source="vieevAvq_79WX8gQopKg-90" target="vieevAvq_79WX8gQopKg-94" edge="1">
                    <mxGeometry width="50" height="50" relative="1" as="geometry">
                        <mxPoint x="628.66" y="-170" as="sourcePoint"/>
                        <mxPoint x="628.66" y="-130" as="targetPoint"/>
                    </mxGeometry>
                </mxCell>
                <mxCell id="vieevAvq_79WX8gQopKg-94" value="ss = 0, sr = 0&lt;br&gt;сс = 0" style="rounded=0;whiteSpace=wrap;html=1;fontSize=20;" parent="WIyWlLk6GJQsqaUBKTNV-1" vertex="1">
                    <mxGeometry x="604" y="-125" width="130" height="50" as="geometry"/>
                </mxCell>
                <mxCell id="vieevAvq_79WX8gQopKg-96" value="" style="endArrow=classic;html=1;rounded=0;exitX=1;exitY=0.5;exitDx=0;exitDy=0;" parent="WIyWlLk6GJQsqaUBKTNV-1" edge="1">
                    <mxGeometry width="50" height="50" relative="1" as="geometry">
                        <mxPoint x="110" y="634" as="sourcePoint"/>
                        <mxPoint x="260" y="634" as="targetPoint"/>
                        <Array as="points"/>
                    </mxGeometry>
                </mxCell>
                <mxCell id="vieevAvq_79WX8gQopKg-98" value="" style="endArrow=classic;html=1;rounded=0;exitX=0.5;exitY=1;exitDx=0;exitDy=0;" parent="WIyWlLk6GJQsqaUBKTNV-1" source="vieevAvq_79WX8gQopKg-94" edge="1">
                    <mxGeometry width="50" height="50" relative="1" as="geometry">
                        <mxPoint x="293.64" y="-45" as="sourcePoint"/>
                        <mxPoint x="669" y="-25" as="targetPoint"/>
                        <Array as="points">
                            <mxPoint x="669" y="-35"/>
                        </Array>
                    </mxGeometry>
                </mxCell>
                <mxCell id="vieevAvq_79WX8gQopKg-99" value="&lt;span style=&quot;font-size: 20px;&quot;&gt;n = 0&lt;/span&gt;" style="rhombus;whiteSpace=wrap;html=1;" parent="WIyWlLk6GJQsqaUBKTNV-1" vertex="1">
                    <mxGeometry x="629" y="-25" width="80" height="80" as="geometry"/>
                </mxCell>
                <mxCell id="vieevAvq_79WX8gQopKg-101" value="" style="endArrow=classic;html=1;rounded=0;exitX=1;exitY=0.5;exitDx=0;exitDy=0;entryX=0.5;entryY=0;entryDx=0;entryDy=0;" parent="WIyWlLk6GJQsqaUBKTNV-1" target="vieevAvq_79WX8gQopKg-109" edge="1">
                    <mxGeometry width="50" height="50" relative="1" as="geometry">
                        <mxPoint x="709" y="15" as="sourcePoint"/>
                        <mxPoint x="779" y="75" as="targetPoint"/>
                        <Array as="points">
                            <mxPoint x="779" y="15"/>
                        </Array>
                    </mxGeometry>
                </mxCell>
                <mxCell id="vieevAvq_79WX8gQopKg-102" value="&lt;font style=&quot;font-size: 20px;&quot;&gt;Нет&lt;/font&gt;" style="edgeLabel;html=1;align=center;verticalAlign=middle;resizable=0;points=[];" parent="vieevAvq_79WX8gQopKg-101" vertex="1" connectable="0">
                    <mxGeometry x="-0.4769" y="1" relative="1" as="geometry">
                        <mxPoint x="-13" y="1" as="offset"/>
                    </mxGeometry>
                </mxCell>
                <mxCell id="vieevAvq_79WX8gQopKg-103" value="&#10;&lt;div style=&quot;color: rgb(204, 204, 204); background-color: rgb(31, 31, 31); font-family: Consolas, &amp;quot;Courier New&amp;quot;, monospace; font-weight: normal; font-size: 14px; line-height: 19px;&quot;&gt;&lt;br&gt;&lt;/div&gt;&#10;&#10;" style="endArrow=classic;html=1;rounded=0;exitX=0;exitY=0.5;exitDx=0;exitDy=0;entryX=0.5;entryY=0;entryDx=0;entryDy=0;" parent="WIyWlLk6GJQsqaUBKTNV-1" target="vieevAvq_79WX8gQopKg-108" edge="1">
                    <mxGeometry width="50" height="50" relative="1" as="geometry">
                        <mxPoint x="629" y="15" as="sourcePoint"/>
                        <mxPoint x="559" y="75" as="targetPoint"/>
                        <Array as="points">
                            <mxPoint x="559" y="15"/>
                        </Array>
                    </mxGeometry>
                </mxCell>
                <mxCell id="vieevAvq_79WX8gQopKg-104" value="&lt;font style=&quot;font-size: 20px;&quot;&gt;Да&lt;/font&gt;" style="edgeLabel;html=1;align=center;verticalAlign=middle;resizable=0;points=[];" parent="vieevAvq_79WX8gQopKg-103" vertex="1" connectable="0">
                    <mxGeometry x="-0.4462" y="1" relative="1" as="geometry">
                        <mxPoint x="20" y="-1" as="offset"/>
                    </mxGeometry>
                </mxCell>
                <mxCell id="vieevAvq_79WX8gQopKg-108" value="&lt;span style=&quot;font-size: 25px;&quot;&gt;Вывод &lt;br&gt;sr, ss&lt;/span&gt;" style="shape=parallelogram;perimeter=parallelogramPerimeter;whiteSpace=wrap;html=1;fixedSize=1;" parent="WIyWlLk6GJQsqaUBKTNV-1" vertex="1">
                    <mxGeometry x="499" y="147.75" width="120" height="60" as="geometry"/>
                </mxCell>
                <mxCell id="vieevAvq_79WX8gQopKg-112" value="" style="endArrow=classic;html=1;rounded=0;entryX=0.5;entryY=0;entryDx=0;entryDy=0;" parent="WIyWlLk6GJQsqaUBKTNV-1" source="vieevAvq_79WX8gQopKg-109" target="vieevAvq_79WX8gQopKg-115" edge="1">
                    <mxGeometry width="50" height="50" relative="1" as="geometry">
                        <mxPoint x="778.96" y="125" as="sourcePoint"/>
                        <mxPoint x="778.5999999999999" y="164" as="targetPoint"/>
                    </mxGeometry>
                </mxCell>
                <mxCell id="vieevAvq_79WX8gQopKg-115" value="d = n % 10" style="rounded=0;whiteSpace=wrap;html=1;fontSize=20;" parent="WIyWlLk6GJQsqaUBKTNV-1" vertex="1">
                    <mxGeometry x="724" y="335" width="110" height="50" as="geometry"/>
                </mxCell>
                <mxCell id="vieevAvq_79WX8gQopKg-116" value="" style="endArrow=classic;html=1;rounded=0;entryX=0.5;entryY=0;entryDx=0;entryDy=0;" parent="WIyWlLk6GJQsqaUBKTNV-1" target="vieevAvq_79WX8gQopKg-117" edge="1">
                    <mxGeometry width="50" height="50" relative="1" as="geometry">
                        <mxPoint x="778.65" y="385" as="sourcePoint"/>
                        <mxPoint x="778.2899999999998" y="424" as="targetPoint"/>
                    </mxGeometry>
                </mxCell>
                <mxCell id="vieevAvq_79WX8gQopKg-117" value="&lt;span style=&quot;font-size: 20px;&quot;&gt;cc &amp;lt;= r&lt;/span&gt;" style="rhombus;whiteSpace=wrap;html=1;" parent="WIyWlLk6GJQsqaUBKTNV-1" vertex="1">
                    <mxGeometry x="739" y="405" width="80" height="80" as="geometry"/>
                </mxCell>
                <mxCell id="vieevAvq_79WX8gQopKg-120" value="" style="endArrow=classic;html=1;rounded=0;entryX=0.5;entryY=0;entryDx=0;entryDy=0;" parent="WIyWlLk6GJQsqaUBKTNV-1" target="vieevAvq_79WX8gQopKg-128" edge="1">
                    <mxGeometry width="50" height="50" relative="1" as="geometry">
                        <mxPoint x="820" y="440" as="sourcePoint"/>
                        <mxPoint x="784" y="714" as="targetPoint"/>
                        <Array as="points">
                            <mxPoint x="889" y="440"/>
                            <mxPoint x="889" y="664"/>
                            <mxPoint x="784" y="664"/>
                        </Array>
                    </mxGeometry>
                </mxCell>
                <mxCell id="vieevAvq_79WX8gQopKg-121" value="&lt;font style=&quot;font-size: 20px;&quot;&gt;Нет&lt;/font&gt;" style="edgeLabel;html=1;align=center;verticalAlign=middle;resizable=0;points=[];" parent="vieevAvq_79WX8gQopKg-120" vertex="1" connectable="0">
                    <mxGeometry x="-0.4769" y="1" relative="1" as="geometry">
                        <mxPoint x="-39" y="-48" as="offset"/>
                    </mxGeometry>
                </mxCell>
                <mxCell id="vieevAvq_79WX8gQopKg-122" value="&#10;&lt;div style=&quot;color: rgb(204, 204, 204); background-color: rgb(31, 31, 31); font-family: Consolas, &amp;quot;Courier New&amp;quot;, monospace; font-weight: normal; font-size: 14px; line-height: 19px;&quot;&gt;&lt;br&gt;&lt;/div&gt;&#10;&#10;" style="endArrow=classic;html=1;rounded=0;exitX=0;exitY=0.5;exitDx=0;exitDy=0;" parent="WIyWlLk6GJQsqaUBKTNV-1" edge="1">
                    <mxGeometry width="50" height="50" relative="1" as="geometry">
                        <mxPoint x="739" y="442" as="sourcePoint"/>
                        <mxPoint x="669" y="560" as="targetPoint"/>
                        <Array as="points">
                            <mxPoint x="669" y="442"/>
                        </Array>
                    </mxGeometry>
                </mxCell>
                <mxCell id="vieevAvq_79WX8gQopKg-123" value="&lt;font style=&quot;font-size: 20px;&quot;&gt;Да&lt;/font&gt;" style="edgeLabel;html=1;align=center;verticalAlign=middle;resizable=0;points=[];" parent="vieevAvq_79WX8gQopKg-122" vertex="1" connectable="0">
                    <mxGeometry x="-0.4462" y="1" relative="1" as="geometry">
                        <mxPoint x="14" y="-3" as="offset"/>
                    </mxGeometry>
                </mxCell>
                <mxCell id="vieevAvq_79WX8gQopKg-124" value="sr = sr + d" style="rounded=0;whiteSpace=wrap;html=1;fontSize=20;" parent="WIyWlLk6GJQsqaUBKTNV-1" vertex="1">
                    <mxGeometry x="614" y="559" width="110" height="50" as="geometry"/>
                </mxCell>
                <mxCell id="vieevAvq_79WX8gQopKg-125" value="" style="endArrow=classic;html=1;rounded=0;exitX=0.5;exitY=1;exitDx=0;exitDy=0;entryX=0.5;entryY=0;entryDx=0;entryDy=0;" parent="WIyWlLk6GJQsqaUBKTNV-1" target="vieevAvq_79WX8gQopKg-128" edge="1">
                    <mxGeometry width="50" height="50" relative="1" as="geometry">
                        <mxPoint x="668.9999999999995" y="609" as="sourcePoint"/>
                        <mxPoint x="784" y="714" as="targetPoint"/>
                        <Array as="points">
                            <mxPoint x="669" y="664"/>
                            <mxPoint x="784" y="664"/>
                        </Array>
                    </mxGeometry>
                </mxCell>
                <mxCell id="vieevAvq_79WX8gQopKg-128" value="&lt;span style=&quot;font-size: 20px;&quot;&gt;dc - s &amp;lt; cc&lt;/span&gt;" style="rhombus;whiteSpace=wrap;html=1;" parent="WIyWlLk6GJQsqaUBKTNV-1" vertex="1">
                    <mxGeometry x="729" y="729" width="110" height="100" as="geometry"/>
                </mxCell>
                <mxCell id="vieevAvq_79WX8gQopKg-131" value="" style="endArrow=classic;html=1;rounded=0;exitX=1;exitY=0.5;exitDx=0;exitDy=0;" parent="WIyWlLk6GJQsqaUBKTNV-1" source="vieevAvq_79WX8gQopKg-128" edge="1">
                    <mxGeometry width="50" height="50" relative="1" as="geometry">
                        <mxPoint x="830" y="864.75" as="sourcePoint"/>
                        <mxPoint x="770" y="1074.75" as="targetPoint"/>
                        <Array as="points">
                            <mxPoint x="900" y="779"/>
                            <mxPoint x="900" y="1024.75"/>
                            <mxPoint x="770" y="1024.75"/>
                        </Array>
                    </mxGeometry>
                </mxCell>
                <mxCell id="vieevAvq_79WX8gQopKg-132" value="&lt;font style=&quot;font-size: 20px;&quot;&gt;Нет&lt;/font&gt;" style="edgeLabel;html=1;align=center;verticalAlign=middle;resizable=0;points=[];" parent="vieevAvq_79WX8gQopKg-131" vertex="1" connectable="0">
                    <mxGeometry x="-0.4769" y="1" relative="1" as="geometry">
                        <mxPoint x="-31" y="-71" as="offset"/>
                    </mxGeometry>
                </mxCell>
                <mxCell id="vieevAvq_79WX8gQopKg-137" value="&#10;&lt;div style=&quot;color: rgb(204, 204, 204); background-color: rgb(31, 31, 31); font-family: Consolas, &amp;quot;Courier New&amp;quot;, monospace; font-weight: normal; font-size: 14px; line-height: 19px;&quot;&gt;&lt;br&gt;&lt;/div&gt;&#10;&#10;" style="endArrow=classic;html=1;rounded=0;exitX=0;exitY=0.5;exitDx=0;exitDy=0;entryX=0.5;entryY=0;entryDx=0;entryDy=0;" parent="WIyWlLk6GJQsqaUBKTNV-1" source="vieevAvq_79WX8gQopKg-128" target="vieevAvq_79WX8gQopKg-140" edge="1">
                    <mxGeometry width="50" height="50" relative="1" as="geometry">
                        <mxPoint x="729" y="759" as="sourcePoint"/>
                        <mxPoint x="659" y="819" as="targetPoint"/>
                        <Array as="points">
                            <mxPoint x="659" y="780"/>
                        </Array>
                    </mxGeometry>
                </mxCell>
                <mxCell id="vieevAvq_79WX8gQopKg-138" value="&lt;font style=&quot;font-size: 20px;&quot;&gt;Да&lt;/font&gt;" style="edgeLabel;html=1;align=center;verticalAlign=middle;resizable=0;points=[];" parent="vieevAvq_79WX8gQopKg-137" vertex="1" connectable="0">
                    <mxGeometry x="-0.4462" y="1" relative="1" as="geometry">
                        <mxPoint x="40" y="1" as="offset"/>
                    </mxGeometry>
                </mxCell>
                <mxCell id="vieevAvq_79WX8gQopKg-140" value="ss = ss + d" style="rounded=0;whiteSpace=wrap;html=1;fontSize=20;" parent="WIyWlLk6GJQsqaUBKTNV-1" vertex="1">
                    <mxGeometry x="604" y="940" width="110" height="50" as="geometry"/>
                </mxCell>
                <mxCell id="vieevAvq_79WX8gQopKg-143" value="" style="endArrow=classic;html=1;rounded=0;exitX=0.5;exitY=1;exitDx=0;exitDy=0;" parent="WIyWlLk6GJQsqaUBKTNV-1" source="vieevAvq_79WX8gQopKg-140" edge="1">
                    <mxGeometry width="50" height="50" relative="1" as="geometry">
                        <mxPoint x="650" y="975" as="sourcePoint"/>
                        <mxPoint x="770" y="1075" as="targetPoint"/>
                        <Array as="points">
                            <mxPoint x="660" y="1025"/>
                            <mxPoint x="770" y="1025"/>
                        </Array>
                    </mxGeometry>
                </mxCell>
                <mxCell id="vieevAvq_79WX8gQopKg-146" value="n = n / 10" style="rounded=0;whiteSpace=wrap;html=1;fontSize=20;" parent="WIyWlLk6GJQsqaUBKTNV-1" vertex="1">
                    <mxGeometry x="717" y="1076" width="110" height="50" as="geometry"/>
                </mxCell>
                <mxCell id="vieevAvq_79WX8gQopKg-149" value="" style="endArrow=classic;html=1;rounded=0;entryX=0.5;entryY=0;entryDx=0;entryDy=0;" parent="WIyWlLk6GJQsqaUBKTNV-1" edge="1">
                    <mxGeometry width="50" height="50" relative="1" as="geometry">
                        <mxPoint x="771.69" y="1126" as="sourcePoint"/>
                        <mxPoint x="771.33" y="1165" as="targetPoint"/>
                    </mxGeometry>
                </mxCell>
                <mxCell id="vieevAvq_79WX8gQopKg-153" value="" style="ellipse;whiteSpace=wrap;html=1;aspect=fixed;" parent="WIyWlLk6GJQsqaUBKTNV-1" vertex="1">
                    <mxGeometry x="747" y="1166" width="50" height="50" as="geometry"/>
                </mxCell>
                <mxCell id="vieevAvq_79WX8gQopKg-156" value="" style="endArrow=classic;html=1;rounded=0;exitX=1;exitY=0.5;exitDx=0;exitDy=0;" parent="WIyWlLk6GJQsqaUBKTNV-1" edge="1">
                    <mxGeometry width="50" height="50" relative="1" as="geometry">
                        <mxPoint x="558" y="-53" as="sourcePoint"/>
                        <mxPoint x="668" y="-53" as="targetPoint"/>
                    </mxGeometry>
                </mxCell>
                <mxCell id="vieevAvq_79WX8gQopKg-179" value="&lt;font style=&quot;font-size: 20px;&quot;&gt;H3&lt;/font&gt;" style="ellipse;whiteSpace=wrap;html=1;aspect=fixed;" parent="WIyWlLk6GJQsqaUBKTNV-1" vertex="1">
                    <mxGeometry x="350" y="1070" width="50" height="50" as="geometry"/>
                </mxCell>
                <mxCell id="vieevAvq_79WX8gQopKg-180" value="" style="ellipse;whiteSpace=wrap;html=1;aspect=fixed;" parent="WIyWlLk6GJQsqaUBKTNV-1" vertex="1">
                    <mxGeometry x="644" y="-220" width="50" height="50" as="geometry"/>
                </mxCell>
                <mxCell id="vieevAvq_79WX8gQopKg-181" value="" style="ellipse;whiteSpace=wrap;html=1;aspect=fixed;" parent="WIyWlLk6GJQsqaUBKTNV-1" vertex="1">
                    <mxGeometry x="350" y="1070" width="50" height="50" as="geometry"/>
                </mxCell>
                <mxCell id="vieevAvq_79WX8gQopKg-182" value="" style="ellipse;whiteSpace=wrap;html=1;aspect=fixed;" parent="WIyWlLk6GJQsqaUBKTNV-1" vertex="1">
                    <mxGeometry x="747" y="1166" width="50" height="50" as="geometry"/>
                </mxCell>
                <mxCell id="vieevAvq_79WX8gQopKg-183" value="" style="ellipse;whiteSpace=wrap;html=1;aspect=fixed;" parent="WIyWlLk6GJQsqaUBKTNV-1" vertex="1">
                    <mxGeometry x="509" y="-76" width="50" height="50" as="geometry"/>
                </mxCell>
                <mxCell id="E43pEu5B_xfWTqah3Lec-0" value="&lt;span style=&quot;font-size: 20px;&quot;&gt;r &amp;lt; 0&lt;/span&gt;" style="rhombus;whiteSpace=wrap;html=1;" parent="WIyWlLk6GJQsqaUBKTNV-1" vertex="1">
                    <mxGeometry x="220" y="-20" width="80" height="80" as="geometry"/>
                </mxCell>
                <mxCell id="E43pEu5B_xfWTqah3Lec-1" value="" style="endArrow=classic;html=1;rounded=0;exitX=1;exitY=0.5;exitDx=0;exitDy=0;" parent="WIyWlLk6GJQsqaUBKTNV-1" edge="1">
                    <mxGeometry width="50" height="50" relative="1" as="geometry">
                        <mxPoint x="300" y="20" as="sourcePoint"/>
                        <mxPoint x="370" y="100" as="targetPoint"/>
                        <Array as="points">
                            <mxPoint x="370" y="20"/>
                        </Array>
                    </mxGeometry>
                </mxCell>
                <mxCell id="E43pEu5B_xfWTqah3Lec-2" value="&lt;font style=&quot;font-size: 20px;&quot;&gt;Нет&lt;/font&gt;" style="edgeLabel;html=1;align=center;verticalAlign=middle;resizable=0;points=[];" parent="E43pEu5B_xfWTqah3Lec-1" vertex="1" connectable="0">
                    <mxGeometry x="-0.4769" y="1" relative="1" as="geometry">
                        <mxPoint as="offset"/>
                    </mxGeometry>
                </mxCell>
                <mxCell id="E43pEu5B_xfWTqah3Lec-3" value="&#10;&lt;div style=&quot;color: rgb(204, 204, 204); background-color: rgb(31, 31, 31); font-family: Consolas, &amp;quot;Courier New&amp;quot;, monospace; font-weight: normal; font-size: 14px; line-height: 19px;&quot;&gt;&lt;br&gt;&lt;/div&gt;&#10;&#10;" style="endArrow=classic;html=1;rounded=0;exitX=0;exitY=0.5;exitDx=0;exitDy=0;entryX=0.5;entryY=0;entryDx=0;entryDy=0;" parent="WIyWlLk6GJQsqaUBKTNV-1" target="E43pEu5B_xfWTqah3Lec-17" edge="1">
                    <mxGeometry width="50" height="50" relative="1" as="geometry">
                        <mxPoint x="220" y="20" as="sourcePoint"/>
                        <mxPoint x="149" y="200" as="targetPoint"/>
                        <Array as="points">
                            <mxPoint x="150" y="20"/>
                        </Array>
                    </mxGeometry>
                </mxCell>
                <mxCell id="E43pEu5B_xfWTqah3Lec-4" value="&lt;font style=&quot;font-size: 20px;&quot;&gt;Да&lt;/font&gt;" style="edgeLabel;html=1;align=center;verticalAlign=middle;resizable=0;points=[];" parent="E43pEu5B_xfWTqah3Lec-3" vertex="1" connectable="0">
                    <mxGeometry x="-0.4462" y="1" relative="1" as="geometry">
                        <mxPoint x="29" y="-15" as="offset"/>
                    </mxGeometry>
                </mxCell>
                <mxCell id="E43pEu5B_xfWTqah3Lec-5" value="" style="endArrow=classic;html=1;rounded=0;" parent="WIyWlLk6GJQsqaUBKTNV-1" edge="1">
                    <mxGeometry width="50" height="50" relative="1" as="geometry">
                        <mxPoint x="370" y="100" as="sourcePoint"/>
                        <mxPoint x="260" y="150" as="targetPoint"/>
                        <Array as="points">
                            <mxPoint x="260" y="100"/>
                        </Array>
                    </mxGeometry>
                </mxCell>
                <mxCell id="E43pEu5B_xfWTqah3Lec-8" value="" style="endArrow=classic;html=1;rounded=0;exitX=0.5;exitY=1;exitDx=0;exitDy=0;entryX=0.5;entryY=0;entryDx=0;entryDy=0;" parent="WIyWlLk6GJQsqaUBKTNV-1" source="vieevAvq_79WX8gQopKg-108" target="E43pEu5B_xfWTqah3Lec-9" edge="1">
                    <mxGeometry width="50" height="50" relative="1" as="geometry">
                        <mxPoint x="554" y="230" as="sourcePoint"/>
                        <mxPoint x="560" y="250" as="targetPoint"/>
                        <Array as="points"/>
                    </mxGeometry>
                </mxCell>
                <mxCell id="E43pEu5B_xfWTqah3Lec-9" value="&lt;p style=&quot;font-size: 20px; line-height: 110%;&quot;&gt;Выход&lt;/p&gt;" style="ellipse;whiteSpace=wrap;html=1;" parent="WIyWlLk6GJQsqaUBKTNV-1" vertex="1">
                    <mxGeometry x="504" y="240" width="110" height="64.5" as="geometry"/>
                </mxCell>
                <mxCell id="E43pEu5B_xfWTqah3Lec-11" value="&lt;span style=&quot;font-size: 20px;&quot;&gt;s &amp;lt; 0&lt;/span&gt;" style="rhombus;whiteSpace=wrap;html=1;" parent="WIyWlLk6GJQsqaUBKTNV-1" vertex="1">
                    <mxGeometry x="220" y="147.75" width="80" height="80" as="geometry"/>
                </mxCell>
                <mxCell id="E43pEu5B_xfWTqah3Lec-12" value="" style="endArrow=classic;html=1;rounded=0;exitX=1;exitY=0.5;exitDx=0;exitDy=0;" parent="WIyWlLk6GJQsqaUBKTNV-1" edge="1">
                    <mxGeometry width="50" height="50" relative="1" as="geometry">
                        <mxPoint x="300" y="187.75" as="sourcePoint"/>
                        <mxPoint x="370" y="267.75" as="targetPoint"/>
                        <Array as="points">
                            <mxPoint x="370" y="187.75"/>
                        </Array>
                    </mxGeometry>
                </mxCell>
                <mxCell id="E43pEu5B_xfWTqah3Lec-13" value="&lt;font style=&quot;font-size: 20px;&quot;&gt;Нет&lt;/font&gt;" style="edgeLabel;html=1;align=center;verticalAlign=middle;resizable=0;points=[];" parent="E43pEu5B_xfWTqah3Lec-12" vertex="1" connectable="0">
                    <mxGeometry x="-0.4769" y="1" relative="1" as="geometry">
                        <mxPoint as="offset"/>
                    </mxGeometry>
                </mxCell>
                <mxCell id="E43pEu5B_xfWTqah3Lec-14" value="&#10;&lt;div style=&quot;color: rgb(204, 204, 204); background-color: rgb(31, 31, 31); font-family: Consolas, &amp;quot;Courier New&amp;quot;, monospace; font-weight: normal; font-size: 14px; line-height: 19px;&quot;&gt;&lt;br&gt;&lt;/div&gt;&#10;&#10;" style="endArrow=classic;html=1;rounded=0;exitX=0;exitY=0.5;exitDx=0;exitDy=0;entryX=0.5;entryY=0;entryDx=0;entryDy=0;" parent="WIyWlLk6GJQsqaUBKTNV-1" target="E43pEu5B_xfWTqah3Lec-17" edge="1">
                    <mxGeometry width="50" height="50" relative="1" as="geometry">
                        <mxPoint x="220" y="187.75" as="sourcePoint"/>
                        <mxPoint x="150" y="227.75" as="targetPoint"/>
                        <Array as="points">
                            <mxPoint x="150" y="187.75"/>
                        </Array>
                    </mxGeometry>
                </mxCell>
                <mxCell id="E43pEu5B_xfWTqah3Lec-15" value="&lt;font style=&quot;font-size: 20px;&quot;&gt;Да&lt;/font&gt;" style="edgeLabel;html=1;align=center;verticalAlign=middle;resizable=0;points=[];" parent="E43pEu5B_xfWTqah3Lec-14" vertex="1" connectable="0">
                    <mxGeometry x="-0.4462" y="1" relative="1" as="geometry">
                        <mxPoint as="offset"/>
                    </mxGeometry>
                </mxCell>
                <mxCell id="E43pEu5B_xfWTqah3Lec-16" value="" style="endArrow=classic;html=1;rounded=0;" parent="WIyWlLk6GJQsqaUBKTNV-1" edge="1">
                    <mxGeometry width="50" height="50" relative="1" as="geometry">
                        <mxPoint x="370" y="267.75" as="sourcePoint"/>
                        <mxPoint x="260" y="317.75" as="targetPoint"/>
                        <Array as="points">
                            <mxPoint x="260" y="267.75"/>
                        </Array>
                    </mxGeometry>
                </mxCell>
                <mxCell id="E43pEu5B_xfWTqah3Lec-17" value="&lt;p style=&quot;font-size: 20px; line-height: 110%;&quot;&gt;Выход&lt;/p&gt;" style="ellipse;whiteSpace=wrap;html=1;" parent="WIyWlLk6GJQsqaUBKTNV-1" vertex="1">
                    <mxGeometry x="94.38" y="240" width="110" height="64.5" as="geometry"/>
                </mxCell>
                <mxCell id="E43pEu5B_xfWTqah3Lec-18" value="&lt;span style=&quot;font-size: 20px;&quot;&gt;dc &amp;lt; r&lt;/span&gt;" style="rhombus;whiteSpace=wrap;html=1;" parent="WIyWlLk6GJQsqaUBKTNV-1" vertex="1">
                    <mxGeometry x="109.88" y="760" width="80" height="80" as="geometry"/>
                </mxCell>
                <mxCell id="E43pEu5B_xfWTqah3Lec-19" value="" style="endArrow=classic;html=1;rounded=0;exitX=1;exitY=0.5;exitDx=0;exitDy=0;" parent="WIyWlLk6GJQsqaUBKTNV-1" edge="1">
                    <mxGeometry width="50" height="50" relative="1" as="geometry">
                        <mxPoint x="189.88" y="800" as="sourcePoint"/>
                        <mxPoint x="259.88" y="880" as="targetPoint"/>
                        <Array as="points">
                            <mxPoint x="259.88" y="800"/>
                        </Array>
                    </mxGeometry>
                </mxCell>
                <mxCell id="E43pEu5B_xfWTqah3Lec-20" value="&lt;font style=&quot;font-size: 20px;&quot;&gt;Нет&lt;/font&gt;" style="edgeLabel;html=1;align=center;verticalAlign=middle;resizable=0;points=[];" parent="E43pEu5B_xfWTqah3Lec-19" vertex="1" connectable="0">
                    <mxGeometry x="-0.4769" y="1" relative="1" as="geometry">
                        <mxPoint as="offset"/>
                    </mxGeometry>
                </mxCell>
                <mxCell id="E43pEu5B_xfWTqah3Lec-21" value="&#10;&lt;div style=&quot;color: rgb(204, 204, 204); background-color: rgb(31, 31, 31); font-family: Consolas, &amp;quot;Courier New&amp;quot;, monospace; font-weight: normal; font-size: 14px; line-height: 19px;&quot;&gt;&lt;br&gt;&lt;/div&gt;&#10;&#10;" style="endArrow=classic;html=1;rounded=0;exitX=0;exitY=0.5;exitDx=0;exitDy=0;entryX=0.5;entryY=0;entryDx=0;entryDy=0;" parent="WIyWlLk6GJQsqaUBKTNV-1" target="E43pEu5B_xfWTqah3Lec-55" edge="1">
                    <mxGeometry width="50" height="50" relative="1" as="geometry">
                        <mxPoint x="109.88" y="800" as="sourcePoint"/>
                        <mxPoint x="38.879999999999995" y="870" as="targetPoint"/>
                        <Array as="points">
                            <mxPoint x="39.879999999999995" y="800"/>
                        </Array>
                    </mxGeometry>
                </mxCell>
                <mxCell id="E43pEu5B_xfWTqah3Lec-22" value="&lt;font style=&quot;font-size: 20px;&quot;&gt;Да&lt;/font&gt;" style="edgeLabel;html=1;align=center;verticalAlign=middle;resizable=0;points=[];" parent="E43pEu5B_xfWTqah3Lec-21" vertex="1" connectable="0">
                    <mxGeometry x="-0.4462" y="1" relative="1" as="geometry">
                        <mxPoint x="39" y="-24" as="offset"/>
                    </mxGeometry>
                </mxCell>
                <mxCell id="E43pEu5B_xfWTqah3Lec-23" value="" style="endArrow=classic;html=1;rounded=0;" parent="WIyWlLk6GJQsqaUBKTNV-1" edge="1">
                    <mxGeometry width="50" height="50" relative="1" as="geometry">
                        <mxPoint x="259.88" y="880" as="sourcePoint"/>
                        <mxPoint x="149.88" y="930" as="targetPoint"/>
                        <Array as="points">
                            <mxPoint x="149.88" y="880"/>
                        </Array>
                    </mxGeometry>
                </mxCell>
                <mxCell id="E43pEu5B_xfWTqah3Lec-24" value="&lt;span style=&quot;font-size: 20px;&quot;&gt;dc &amp;lt; s&lt;/span&gt;" style="rhombus;whiteSpace=wrap;html=1;" parent="WIyWlLk6GJQsqaUBKTNV-1" vertex="1">
                    <mxGeometry x="109.88" y="927.75" width="80" height="80" as="geometry"/>
                </mxCell>
                <mxCell id="E43pEu5B_xfWTqah3Lec-25" value="" style="endArrow=classic;html=1;rounded=0;exitX=1;exitY=0.5;exitDx=0;exitDy=0;" parent="WIyWlLk6GJQsqaUBKTNV-1" edge="1">
                    <mxGeometry width="50" height="50" relative="1" as="geometry">
                        <mxPoint x="189.88" y="967.75" as="sourcePoint"/>
                        <mxPoint x="259.88" y="1047.75" as="targetPoint"/>
                        <Array as="points">
                            <mxPoint x="259.88" y="967.75"/>
                        </Array>
                    </mxGeometry>
                </mxCell>
                <mxCell id="E43pEu5B_xfWTqah3Lec-26" value="&lt;font style=&quot;font-size: 20px;&quot;&gt;Нет&lt;/font&gt;" style="edgeLabel;html=1;align=center;verticalAlign=middle;resizable=0;points=[];" parent="E43pEu5B_xfWTqah3Lec-25" vertex="1" connectable="0">
                    <mxGeometry x="-0.4769" y="1" relative="1" as="geometry">
                        <mxPoint as="offset"/>
                    </mxGeometry>
                </mxCell>
                <mxCell id="E43pEu5B_xfWTqah3Lec-27" value="&#10;&lt;div style=&quot;color: rgb(204, 204, 204); background-color: rgb(31, 31, 31); font-family: Consolas, &amp;quot;Courier New&amp;quot;, monospace; font-weight: normal; font-size: 14px; line-height: 19px;&quot;&gt;&lt;br&gt;&lt;/div&gt;&#10;&#10;" style="endArrow=classic;html=1;rounded=0;exitX=0;exitY=0.5;exitDx=0;exitDy=0;" parent="WIyWlLk6GJQsqaUBKTNV-1" source="E43pEu5B_xfWTqah3Lec-24" edge="1">
                    <mxGeometry width="50" height="50" relative="1" as="geometry">
                        <mxPoint x="109.88" y="982.75" as="sourcePoint"/>
                        <mxPoint x="39" y="1075" as="targetPoint"/>
                        <Array as="points">
                            <mxPoint x="39" y="968"/>
                        </Array>
                    </mxGeometry>
                </mxCell>
                <mxCell id="E43pEu5B_xfWTqah3Lec-28" value="&lt;font style=&quot;font-size: 20px;&quot;&gt;Да&lt;/font&gt;" style="edgeLabel;html=1;align=center;verticalAlign=middle;resizable=0;points=[];" parent="E43pEu5B_xfWTqah3Lec-27" vertex="1" connectable="0">
                    <mxGeometry x="-0.4462" y="1" relative="1" as="geometry">
                        <mxPoint x="5" as="offset"/>
                    </mxGeometry>
                </mxCell>
                <mxCell id="E43pEu5B_xfWTqah3Lec-29" value="" style="endArrow=classic;html=1;rounded=0;" parent="WIyWlLk6GJQsqaUBKTNV-1" edge="1">
                    <mxGeometry width="50" height="50" relative="1" as="geometry">
                        <mxPoint x="259.88" y="1047.75" as="sourcePoint"/>
                        <mxPoint x="149.88" y="1097.75" as="targetPoint"/>
                        <Array as="points">
                            <mxPoint x="149.88" y="1047.75"/>
                        </Array>
                    </mxGeometry>
                </mxCell>
                <mxCell id="E43pEu5B_xfWTqah3Lec-55" value="&lt;p style=&quot;font-size: 20px; line-height: 110%;&quot;&gt;Выход&lt;/p&gt;" style="ellipse;whiteSpace=wrap;html=1;" parent="WIyWlLk6GJQsqaUBKTNV-1" vertex="1">
                    <mxGeometry x="-15.620000000000005" y="1076" width="110" height="64.5" as="geometry"/>
                </mxCell>
                <mxCell id="vieevAvq_79WX8gQopKg-109" value="cc = cc + 1" style="rounded=0;whiteSpace=wrap;html=1;fontSize=20;" parent="WIyWlLk6GJQsqaUBKTNV-1" vertex="1">
                    <mxGeometry x="724" y="152.75" width="110" height="50" as="geometry"/>
                </mxCell>
            </root>
        </mxGraphModel>
    </diagram>
</mxfile>